<mxfile host="Electron" modified="2024-07-12T01:36:57.952Z" agent="Mozilla/5.0 (X11; Linux x86_64) AppleWebKit/537.36 (KHTML, like Gecko) draw.io/24.6.4 Chrome/124.0.6367.207 Electron/30.0.6 Safari/537.36" version="24.6.4" etag="Pg_W-LFn5skZQAhm2fg4" type="device">
  <diagram id="p8GyEquSWD_yjLax1kO6" name="PÃ¡gina-1">
    <mxGraphModel dx="880" dy="531" grid="1" gridSize="10" guides="1" tooltips="1" connect="1" arrows="1" fold="1" page="1" pageScale="1" pageWidth="827" pageHeight="1169" math="0" shadow="0">
      <root>
        <mxCell id="0" />
        <mxCell id="1" parent="0" />
        <mxCell id="ygDLj98TDrSB31_C_IK2-8" style="edgeStyle=orthogonalEdgeStyle;rounded=0;orthogonalLoop=1;jettySize=auto;html=1;exitX=1;exitY=0.5;exitDx=0;exitDy=0;entryX=0.5;entryY=0;entryDx=0;entryDy=0;" edge="1" parent="1" source="2" target="ygDLj98TDrSB31_C_IK2-4">
          <mxGeometry relative="1" as="geometry" />
        </mxCell>
        <mxCell id="ygDLj98TDrSB31_C_IK2-9" style="edgeStyle=orthogonalEdgeStyle;rounded=0;orthogonalLoop=1;jettySize=auto;html=1;exitX=0;exitY=0.5;exitDx=0;exitDy=0;entryX=0.5;entryY=0;entryDx=0;entryDy=0;" edge="1" parent="1" source="2" target="ygDLj98TDrSB31_C_IK2-2">
          <mxGeometry relative="1" as="geometry" />
        </mxCell>
        <mxCell id="ygDLj98TDrSB31_C_IK2-10" style="edgeStyle=orthogonalEdgeStyle;rounded=0;orthogonalLoop=1;jettySize=auto;html=1;exitX=0.5;exitY=1;exitDx=0;exitDy=0;entryX=0.5;entryY=0;entryDx=0;entryDy=0;" edge="1" parent="1" source="2" target="ygDLj98TDrSB31_C_IK2-3">
          <mxGeometry relative="1" as="geometry" />
        </mxCell>
        <mxCell id="2" value="Client A" style="rounded=0;whiteSpace=wrap;html=1;" parent="1" vertex="1">
          <mxGeometry x="250" y="150" width="120" height="60" as="geometry" />
        </mxCell>
        <mxCell id="ygDLj98TDrSB31_C_IK2-14" style="edgeStyle=orthogonalEdgeStyle;rounded=0;orthogonalLoop=1;jettySize=auto;html=1;exitX=0;exitY=0.5;exitDx=0;exitDy=0;entryX=0.25;entryY=0;entryDx=0;entryDy=0;" edge="1" parent="1" source="ygDLj98TDrSB31_C_IK2-2" target="2">
          <mxGeometry relative="1" as="geometry" />
        </mxCell>
        <mxCell id="ygDLj98TDrSB31_C_IK2-15" style="edgeStyle=orthogonalEdgeStyle;rounded=0;orthogonalLoop=1;jettySize=auto;html=1;exitX=0;exitY=0.5;exitDx=0;exitDy=0;entryX=0.25;entryY=1;entryDx=0;entryDy=0;" edge="1" parent="1" source="ygDLj98TDrSB31_C_IK2-2" target="ygDLj98TDrSB31_C_IK2-5">
          <mxGeometry relative="1" as="geometry" />
        </mxCell>
        <mxCell id="ygDLj98TDrSB31_C_IK2-2" value="Audio" style="ellipse;whiteSpace=wrap;html=1;aspect=fixed;" vertex="1" parent="1">
          <mxGeometry x="150" y="290" width="80" height="80" as="geometry" />
        </mxCell>
        <mxCell id="ygDLj98TDrSB31_C_IK2-16" style="edgeStyle=orthogonalEdgeStyle;rounded=0;orthogonalLoop=1;jettySize=auto;html=1;exitX=0;exitY=0;exitDx=0;exitDy=0;entryX=0;entryY=1;entryDx=0;entryDy=0;" edge="1" parent="1" source="ygDLj98TDrSB31_C_IK2-3" target="2">
          <mxGeometry relative="1" as="geometry" />
        </mxCell>
        <mxCell id="ygDLj98TDrSB31_C_IK2-17" style="edgeStyle=orthogonalEdgeStyle;rounded=0;orthogonalLoop=1;jettySize=auto;html=1;exitX=0;exitY=1;exitDx=0;exitDy=0;entryX=0;entryY=0;entryDx=0;entryDy=0;" edge="1" parent="1" source="ygDLj98TDrSB31_C_IK2-3" target="ygDLj98TDrSB31_C_IK2-5">
          <mxGeometry relative="1" as="geometry" />
        </mxCell>
        <mxCell id="ygDLj98TDrSB31_C_IK2-3" value="Video" style="ellipse;whiteSpace=wrap;html=1;aspect=fixed;" vertex="1" parent="1">
          <mxGeometry x="270" y="290" width="80" height="80" as="geometry" />
        </mxCell>
        <mxCell id="ygDLj98TDrSB31_C_IK2-12" style="edgeStyle=orthogonalEdgeStyle;rounded=0;orthogonalLoop=1;jettySize=auto;html=1;exitX=1;exitY=0.5;exitDx=0;exitDy=0;entryX=0.75;entryY=0;entryDx=0;entryDy=0;" edge="1" parent="1" source="ygDLj98TDrSB31_C_IK2-4" target="2">
          <mxGeometry relative="1" as="geometry" />
        </mxCell>
        <mxCell id="ygDLj98TDrSB31_C_IK2-13" style="edgeStyle=orthogonalEdgeStyle;rounded=0;orthogonalLoop=1;jettySize=auto;html=1;exitX=1;exitY=0.5;exitDx=0;exitDy=0;entryX=0.75;entryY=1;entryDx=0;entryDy=0;" edge="1" parent="1" source="ygDLj98TDrSB31_C_IK2-4" target="ygDLj98TDrSB31_C_IK2-5">
          <mxGeometry relative="1" as="geometry" />
        </mxCell>
        <mxCell id="ygDLj98TDrSB31_C_IK2-18" style="edgeStyle=orthogonalEdgeStyle;rounded=0;orthogonalLoop=1;jettySize=auto;html=1;exitX=0;exitY=1;exitDx=0;exitDy=0;entryX=1;entryY=0;entryDx=0;entryDy=0;" edge="1" parent="1" source="ygDLj98TDrSB31_C_IK2-4" target="ygDLj98TDrSB31_C_IK2-5">
          <mxGeometry relative="1" as="geometry" />
        </mxCell>
        <mxCell id="ygDLj98TDrSB31_C_IK2-19" style="edgeStyle=orthogonalEdgeStyle;rounded=0;orthogonalLoop=1;jettySize=auto;html=1;exitX=0;exitY=0;exitDx=0;exitDy=0;entryX=1;entryY=1;entryDx=0;entryDy=0;" edge="1" parent="1" source="ygDLj98TDrSB31_C_IK2-4" target="2">
          <mxGeometry relative="1" as="geometry" />
        </mxCell>
        <mxCell id="ygDLj98TDrSB31_C_IK2-4" value="Texto" style="ellipse;whiteSpace=wrap;html=1;aspect=fixed;" vertex="1" parent="1">
          <mxGeometry x="390" y="290" width="80" height="80" as="geometry" />
        </mxCell>
        <mxCell id="ygDLj98TDrSB31_C_IK2-6" style="edgeStyle=orthogonalEdgeStyle;rounded=0;orthogonalLoop=1;jettySize=auto;html=1;exitX=0;exitY=0.5;exitDx=0;exitDy=0;entryX=0.5;entryY=1;entryDx=0;entryDy=0;" edge="1" parent="1" source="ygDLj98TDrSB31_C_IK2-5" target="ygDLj98TDrSB31_C_IK2-2">
          <mxGeometry relative="1" as="geometry" />
        </mxCell>
        <mxCell id="ygDLj98TDrSB31_C_IK2-7" style="edgeStyle=orthogonalEdgeStyle;rounded=0;orthogonalLoop=1;jettySize=auto;html=1;exitX=1;exitY=0.5;exitDx=0;exitDy=0;entryX=0.5;entryY=1;entryDx=0;entryDy=0;" edge="1" parent="1" source="ygDLj98TDrSB31_C_IK2-5" target="ygDLj98TDrSB31_C_IK2-4">
          <mxGeometry relative="1" as="geometry" />
        </mxCell>
        <mxCell id="ygDLj98TDrSB31_C_IK2-11" style="edgeStyle=orthogonalEdgeStyle;rounded=0;orthogonalLoop=1;jettySize=auto;html=1;exitX=0.5;exitY=0;exitDx=0;exitDy=0;entryX=0.5;entryY=1;entryDx=0;entryDy=0;" edge="1" parent="1" source="ygDLj98TDrSB31_C_IK2-5" target="ygDLj98TDrSB31_C_IK2-3">
          <mxGeometry relative="1" as="geometry" />
        </mxCell>
        <mxCell id="ygDLj98TDrSB31_C_IK2-5" value="Client B" style="rounded=0;whiteSpace=wrap;html=1;" vertex="1" parent="1">
          <mxGeometry x="250" y="450" width="120" height="60" as="geometry" />
        </mxCell>
      </root>
    </mxGraphModel>
  </diagram>
</mxfile>
